# xmcd
#
# Track frame offsets: 
#        150
#        19725
#        39300
#        58275
#        77250
#        93075
#        109200
#        133425
#        145425
#        169800
#        186000
#        203700
#
# Disc length: 2952 seconds
#
# Revision: 0
# Processed by: cddbd v1.5.2PL0 Copyright (c) Steve Scherf et al.
# Submitted via: ExactAudioCopy v1.2
#
DISCID=a30b860c
DTITLE=The Wolves - Live It Up
DYEAR=2018
DGENRE=Blues
TTITLE0=Come On Back To Your Life
TTITLE1=Blues N Stuff
TTITLE2=You’ve Been My Rock
TTITLE3=Here Come Those Blues Again
TTITLE4=Watch What You Do In The Night
TTITLE5=Personal
TTITLE6=One Way Ticket To The Blues
TTITLE7=Woman Of Mine
TTITLE8=Rhythm Of The Streets
TTITLE9=Testifyin'
TTITLE10=Live It Up
TTITLE11=Good Time Shoes
EXTD=
EXTT0=
EXTT1=
EXTT2=
EXTT3=
EXTT4=
EXTT5=
EXTT6=
EXTT7=
EXTT8=
EXTT9=
EXTT10=
EXTT11=
PLAYORDER=
